<svg width="161" height="21" viewBox="0 0 161 21" fill="none" xmlns="http://www.w3.org/2000/svg">
<path d="M13.592 10.584L13.956 9.772C15.6173 9.79067 16.9707 10.0427 18.016 10.528C19.08 11.0133 19.8547 11.6667 20.34 12.488C20.844 13.3093 21.096 14.2333 21.096 15.26C21.096 16.38 20.8253 17.3693 20.284 18.228C19.7613 19.0867 18.9867 19.768 17.96 20.272C16.9333 20.7573 15.6547 21 14.124 21H0.124L1.776 10.22L0.124 -1.66893e-06H13.62C15.5613 -1.66893e-06 17.0547 0.457332 18.1 1.372C19.164 2.268 19.696 3.50933 19.696 5.096C19.696 5.936 19.4907 6.75733 19.08 7.56C18.688 8.344 18.044 9.016 17.148 9.576C16.2707 10.1173 15.0853 10.4533 13.592 10.584ZM3.848 19.964L2.42 18.032H13.704C14.8613 18.032 15.7573 17.7707 16.392 17.248C17.0453 16.7067 17.372 15.9413 17.372 14.952C17.372 13.9067 16.9893 13.0947 16.224 12.516C15.4773 11.9373 14.3667 11.648 12.892 11.648H3.792V8.792H12.528C13.5173 8.792 14.3387 8.52133 14.992 7.98C15.6453 7.42 15.972 6.62667 15.972 5.6C15.972 4.83467 15.7013 4.20933 15.16 3.724C14.6187 3.22 13.8347 2.968 12.808 2.968H2.42L3.848 1.036L5.332 10.22L3.848 19.964ZM26.3473 16.184V13.132H41.0193V16.184H26.3473ZM36.0913 -1.66893e-06L46.1713 21H42.2233L33.0673 1.4H34.4953L25.3393 21H21.3913L31.4713 -1.66893e-06H36.0913ZM51.3069 9.464H59.8469C61.0789 9.464 62.0496 9.184 62.7589 8.624C63.4869 8.064 63.8509 7.29867 63.8509 6.328C63.8509 5.33867 63.4869 4.57333 62.7589 4.032C62.0496 3.472 61.0789 3.192 59.8469 3.192H50.7749L52.4269 1.12V21H48.7309V-1.66893e-06H60.1829C61.6576 -1.66893e-06 62.9456 0.270665 64.0469 0.812C65.1669 1.33467 66.0349 2.072 66.6509 3.024C67.2856 3.95733 67.6029 5.05867 67.6029 6.328C67.6029 7.56 67.2856 8.652 66.6509 9.604C66.0349 10.5373 65.1669 11.2747 64.0469 11.816C62.9456 12.3387 61.6576 12.6 60.1829 12.6H51.3069V9.464ZM55.4509 11.172H59.7909L68.1349 21H63.7109L55.4509 11.172ZM73.734 16.184V13.132H88.406V16.184H73.734ZM83.478 -1.66893e-06L93.558 21H89.61L80.454 1.4H81.882L72.726 21H68.778L78.858 -1.66893e-06H83.478ZM96.1176 21V-1.66893e-06H99.8136V17.892L98.6936 17.192L112.75 -1.66893e-06H116.754L99.4216 21H96.1176ZM106.114 10.444L108.718 7.896L117.062 21H112.834L106.114 10.444ZM122.215 16.184V13.132H136.887V16.184H122.215ZM131.959 -1.66893e-06L142.039 21H138.091L128.935 1.4H130.363L121.207 21H117.259L127.339 -1.66893e-06H131.959ZM147.71 1.708H151.406V21H147.71V1.708ZM139.03 -1.66893e-06H160.086V3.248H139.03V-1.66893e-06Z" fill="black"/>
</svg>
